HIERARCHY
ROOT Hips
{
	OFFSET 0.00 0.00 0.00
	CHANNELS 6 Xposition Yposition Zposition Yrotation Xrotation Zrotation
	JOINT Spine
	{
		OFFSET	0.0000	9.2263	1.5771
		CHANNELS 3 Xrotation Yrotation Zrotation
		JOINT Spine1
		{
			OFFSET	0.0000	16.2540	-0.1656
			CHANNELS 3 Xrotation Yrotation Zrotation
			JOINT Spine2
			{
				OFFSET	0.0000	13.6396	-1.2923
				CHANNELS 3 Xrotation Yrotation Zrotation
				JOINT Neck
				{
					OFFSET	0.0000	13.8774	-4.3542
					CHANNELS 3 Xrotation Yrotation Zrotation
					JOINT Neck1
					{
						OFFSET	0.0000	4.3400	0.9269
						CHANNELS 3 Xrotation Yrotation Zrotation
						JOINT Head
						{
							OFFSET	0.0000	4.0266	0.8585
							CHANNELS 3 Xrotation Yrotation Zrotation
							End Site
							{
								OFFSET 0.0000 23.0297 0.1231
							}
						}
					}
				}
				JOINT LeftShoulder
				{
					OFFSET	6.1442	10.1870	-3.7932
					CHANNELS 3 Zrotation Xrotation Yrotation
					JOINT LeftArm
					{
						OFFSET	12.3191	-1.1130	-1.7935
						CHANNELS 3 Zrotation Xrotation Yrotation
						JOINT LeftForeArm
						{
							OFFSET	27.6870	0.0000	0.0000
							CHANNELS 3 Xrotation Zrotation Yrotation
							JOINT LeftHand
							{
								OFFSET	27.8738	0.0000	0.0000
								CHANNELS 3 Zrotation Yrotation Xrotation
								JOINT LeftHandThumb1
								{
									OFFSET	2.3785	-1.0029	2.6209
									CHANNELS 3 Zrotation Xrotation Yrotation
									JOINT LeftHandThumb2
									{
										OFFSET	3.3624	-1.0029	2.8398
										CHANNELS 3 Zrotation Xrotation Yrotation
										JOINT LeftHandThumb3
										{
											OFFSET	4.5018	-1.3445	2.1783
											CHANNELS 3 Zrotation Xrotation Yrotation
											End Site
											{
												OFFSET 2.6000 -1.0000 1.0000
											}
										}
									}
								}
								JOINT LeftHandMiddle1
								{
									OFFSET	10.4639	0.6148	0.4298
									CHANNELS 3 Zrotation Xrotation Yrotation
									JOINT LeftHandMiddle2
									{
										OFFSET	5.7921	0.0000	0.0000
										CHANNELS 3 Zrotation Xrotation Yrotation
										JOINT LeftHandMiddle3
										{
											OFFSET	3.7132	0.0000	0.0000
											CHANNELS 3 Zrotation Xrotation Yrotation
											End Site
											{
												OFFSET 2.3000 0.0000 0.0000
											}
										}
									}
								}
								JOINT LeftHandIndex1
								{
									OFFSET	10.3945	0.6148	2.7055
									CHANNELS 3 Zrotation Xrotation Yrotation
									JOINT LeftHandIndex2
									{
										OFFSET	5.5493	0.0000	0.0000
										CHANNELS 3 Zrotation Xrotation Yrotation
										JOINT LeftHandIndex3
										{
											OFFSET	3.3911	0.0000	0.0000
											CHANNELS 3 Zrotation Xrotation Yrotation
											End Site
											{
												OFFSET 2.5000 0.0000 0.0000
											}
										}
									}
								}
								JOINT LeftHandRing1
								{
									OFFSET	10.3252	0.3211	-1.8755
									CHANNELS 3 Zrotation Xrotation Yrotation
									JOINT LeftHandRing2
									{
										OFFSET	5.4452	0.0000	0.0000
										CHANNELS 3 Zrotation Xrotation Yrotation
										JOINT LeftHandRing3
										{
											OFFSET	3.7132	0.0000	0.0000
											CHANNELS 3 Zrotation Xrotation Yrotation
											End Site
											{
												OFFSET 2.0000 0.0000 0.0000
											}
										}
									}
								}
								JOINT LeftHandPinky1
								{
									OFFSET	10.0130	-0.0783	-3.9671
									CHANNELS 3 Zrotation Xrotation Yrotation
									JOINT LeftHandPinky2
									{
										OFFSET	3.6763	0.0000	0.0000
										CHANNELS 3 Zrotation Xrotation Yrotation
										JOINT LeftHandPinky3
										{
											OFFSET	2.8113	0.0000	0.0000
											CHANNELS 3 Zrotation Xrotation Yrotation
											End Site
											{
												OFFSET 2.9000 0.0000 0.0000
											}
										}
									}
								}
							}
						}
					}
				}
				JOINT RightShoulder
				{
					OFFSET	-6.1402	10.1870	-3.7932
					CHANNELS 3 Zrotation Xrotation Yrotation
					JOINT RightArm
					{
						OFFSET	-12.3231	-1.1130	-1.7935
						CHANNELS 3 Zrotation Xrotation Yrotation
						JOINT RightForeArm
						{
							OFFSET	-27.6870	0.0000	0.0000
							CHANNELS 3 Xrotation Zrotation Yrotation
							JOINT RightHand
							{
								OFFSET	-27.8738	0.0000	0.0000
								CHANNELS 3 Zrotation Yrotation Xrotation
								JOINT RightHandThumb1
								{
									OFFSET	-2.5178	-0.9367	2.5137
									CHANNELS 3 Zrotation Xrotation Yrotation
									JOINT RightHandThumb2
									{
										OFFSET	-3.2638	-1.0870	2.9669
										CHANNELS 3 Zrotation Xrotation Yrotation
										JOINT RightHandThumb3
										{
											OFFSET	-4.4165	-1.3703	2.1350
											CHANNELS 3 Zrotation Xrotation Yrotation
											End Site
											{
												OFFSET -2.6000 -1.0000 1.0000
											}
										}
									}
								}
								JOINT RightHandIndex1
								{
									OFFSET	-10.4665	0.4896	2.7120
									CHANNELS 3 Zrotation Xrotation Yrotation
									JOINT RightHandIndex2
									{
										OFFSET	-5.3768	0.0000	0.0000
										CHANNELS 3 Zrotation Xrotation Yrotation
										JOINT RightHandIndex3
										{
											OFFSET	-3.3855	0.0000	0.0000
											CHANNELS 3 Zrotation Xrotation Yrotation
											End Site
											{
												OFFSET -2.6000 0.0000 0.0000
											}
										}
									}
								}
								JOINT RightHandMiddle1
								{
									OFFSET	-10.7596	0.4896	0.4278
									CHANNELS 3 Zrotation Xrotation Yrotation
									JOINT RightHandMiddle2
									{
										OFFSET	-5.6168	0.0000	0.0000
										CHANNELS 3 Zrotation Xrotation Yrotation
										JOINT RightHandMiddle3
										{
											OFFSET	-3.7364	0.0000	0.0000
											CHANNELS 3 Zrotation Xrotation Yrotation
											End Site
											{
												OFFSET -2.3000 0.0000 0.0000
											}
										}
									}
								}
								JOINT RightHandRing1
								{
									OFFSET	-10.4702	0.3879	-1.9363
									CHANNELS 3 Zrotation Xrotation Yrotation
									JOINT RightHandRing2
									{
										OFFSET	-5.4013	0.0000	0.0000
										CHANNELS 3 Zrotation Xrotation Yrotation
										JOINT RightHandRing3
										{
											OFFSET	-3.3916	0.0000	0.0000
											CHANNELS 3 Zrotation Xrotation Yrotation
											End Site
											{
												OFFSET -2.2000 0.0000 0.0000
											}
										}
									}
								}
								JOINT RightHandPinky1
								{
									OFFSET	-9.9715	-0.1191	-3.9540
									CHANNELS 3 Zrotation Xrotation Yrotation
									JOINT RightHandPinky2
									{
										OFFSET	-3.6528	0.0000	0.0000
										CHANNELS 3 Zrotation Xrotation Yrotation
										JOINT RightHandPinky3
										{
											OFFSET	-2.7820	0.0000	0.0000
											CHANNELS 3 Zrotation Xrotation Yrotation
											End Site
											{
												OFFSET -2.9000 0.0000 0.0000
											}
										}
									}
								}
							}
						}
					}
				}
			}
		}
	}
	JOINT LeftUpLeg
	{
		OFFSET	9.6338	-3.2733	0.0000
		CHANNELS 3 Xrotation Yrotation Zrotation
		JOINT LeftLeg
		{
			OFFSET	0.0000	-41.7300	-1.7300
			CHANNELS 3 Xrotation Yrotation Zrotation
			JOINT LeftFoot
			{
				OFFSET	0.0126	-39.1900	-0.8477
				CHANNELS 3 Xrotation Yrotation Zrotation
				JOINT LeftToeBase
				{
					OFFSET	-0.1833	-12.1931	8.2823
					CHANNELS 3 Xrotation Yrotation Zrotation
					End Site
					{
						OFFSET 0.0000 0.0000 10.1681
					}
				}
			}
		}
	}
	JOINT RightUpLeg
	{
		OFFSET	-9.6338	-3.2733	0.0000
		CHANNELS 3 Xrotation Yrotation Zrotation
		JOINT RightLeg
		{
			OFFSET	0.0000	-41.7300	-1.7300
			CHANNELS 3 Xrotation Yrotation Zrotation
			JOINT RightFoot
			{
				OFFSET	0.0126	-39.1900	-0.8477
				CHANNELS 3 Xrotation Yrotation Zrotation
				JOINT RightToeBase
				{
					OFFSET	-0.1833	-12.1931	8.2823
					CHANNELS 3 Xrotation Yrotation Zrotation
					End Site
					{
						OFFSET 0.0032 0.0000 10.1681
					}
				}
			}
		}
	}
}
MOTION
Frames: 8
Frame Time: 0.0333333
0.1180 92.8809 4.9255 -6.2022 -0.8285 -1.3041 1.4167 -0.0947 0.0721 2.6056 -0.1752 0.3241 2.6059 -0.1737 0.3248 -4.3284 0.3826 -1.1376 -0.0000 0.0000 -0.0000 -10.3102 0.2850 2.1781 31.6061 -12.7168 -8.9085 14.7693 -50.3291 -30.7965 -0.0000 0.0000 -15.0783 -0.3187 4.7600 -19.8728 -9.5806 3.0992 -7.3944 -0.0083 0.0025 30.3938 29.9208 2.1548 6.1450 -36.5548 0.0035 -2.9470 -95.8624 0.0166 -0.0149 -51.2739 0.0057 -0.0117 -42.5293 1.1751 -3.3590 -88.0775 0.0145 -0.0150 -51.0128 0.0056 -0.0117 -36.7092 0.0035 -1.4963 -113.3937 0.0210 -0.0138 -63.1438 0.0082 -0.0134 -42.8556 -5.6719 -2.2343 -85.0312 0.0137 -0.0150 -119.2414 0.0224 -0.0131 -37.7732 -22.6161 8.9298 -11.5341 -40.1652 29.7545 0.0000 -0.0000 22.0568 -13.5668 4.2124 -55.2057 9.5843 3.1023 7.3914 0.0045 0.0015 -30.3940 -29.8300 5.1535 -11.7593 42.5295 1.1729 3.3537 88.0775 0.0077 0.0079 51.0128 0.0029 0.0061 36.5548 0.0018 2.9423 95.8624 0.0087 0.0079 51.2739 0.0030 0.0062 36.7091 0.0018 1.4916 113.3937 0.0111 0.0073 63.1438 0.0043 0.0071 42.8550 -5.6741 2.2291 85.0312 0.0072 0.0079 119.2415 0.0118 0.0069 -8.9855 15.4554 13.7437 29.6663 10.1573 0.5248 -15.4333 4.9860 -10.5879 -3.3956 -0.0000 -0.0000 -9.1442 -11.6931 -9.2111 26.2525 -5.1272 -3.1271 -15.0419 -1.8546 11.8030 -0.2651 -0.0000 0.0000 
0.1068 92.8552 4.9271 -6.3187 -0.8626 -1.2687 1.4071 -0.0869 0.0767 2.5951 -0.1610 0.3316 2.5953 -0.1596 0.3323 -4.5272 0.4209 -1.2972 -0.0000 0.0000 -0.0000 -10.0558 0.2970 1.9607 31.6876 -12.6986 -8.2408 13.0103 -50.6339 -32.3245 0.0000 -0.0000 -15.3797 -0.3187 4.7600 -19.8728 -9.5806 3.0992 -7.3944 -0.0083 0.0026 30.3938 29.9208 2.1548 6.1450 -36.5548 0.0035 -2.9469 -95.8624 0.0166 -0.0149 -51.2739 0.0056 -0.0117 -42.5293 1.1751 -3.3590 -88.0775 0.0145 -0.0150 -51.0128 0.0056 -0.0117 -36.7092 0.0035 -1.4963 -113.3937 0.0210 -0.0138 -63.1438 0.0082 -0.0134 -42.8556 -5.6719 -2.2343 -85.0312 0.0137 -0.0150 -119.2414 0.0224 -0.0131 -37.1133 -22.9491 9.5717 -12.9023 -40.1298 28.9052 0.0000 -0.0000 23.1478 -12.5957 3.9198 -55.0062 9.5843 3.1023 7.3914 0.0045 0.0015 -30.3940 -29.8300 5.1535 -11.7593 42.5295 1.1729 3.3538 88.0775 0.0076 0.0079 51.0128 0.0029 0.0062 36.5548 0.0018 2.9423 95.8624 0.0087 0.0079 51.2739 0.0030 0.0062 36.7091 0.0018 1.4916 113.3938 0.0111 0.0073 63.1438 0.0043 0.0071 42.8550 -5.6741 2.2291 85.0312 0.0072 0.0079 119.2415 0.0118 0.0069 -8.8122 15.4609 13.6538 29.5525 10.1547 0.5263 -15.6112 5.1977 -10.5994 -3.2101 -0.0000 -0.0000 -9.2312 -11.7017 -9.2923 26.4312 -4.9106 -3.1271 -15.1501 -1.8700 11.8165 -0.2429 0.0000 -0.0000 
0.1199 92.8336 4.9384 -6.5038 -0.9267 -1.2160 1.3869 -0.0844 0.0917 2.5718 -0.1559 0.3531 2.5720 -0.1549 0.3538 -4.5598 0.5101 -1.5651 -0.0000 0.0000 -0.0000 -9.9071 0.4356 1.9703 31.7837 -12.6929 -7.5500 11.2738 -50.8858 -33.7554 0.0000 -0.0000 -15.7358 -0.3186 4.7600 -19.8728 -9.5806 3.0992 -7.3945 -0.0083 0.0025 30.3938 29.9208 2.1548 6.1449 -36.5548 0.0035 -2.9470 -95.8624 0.0166 -0.0149 -51.2739 0.0056 -0.0117 -42.5293 1.1751 -3.3590 -88.0775 0.0145 -0.0150 -51.0128 0.0056 -0.0117 -36.7092 0.0035 -1.4963 -113.3937 0.0210 -0.0138 -63.1438 0.0082 -0.0134 -42.8556 -5.6719 -2.2343 -85.0312 0.0137 -0.0150 -119.2414 0.0224 -0.0131 -36.4179 -23.2713 10.2310 -14.2698 -39.9371 28.5907 -0.0000 -0.0000 23.5847 -11.5821 3.5825 -55.1702 9.5843 3.1023 7.3914 0.0045 0.0015 -30.3940 -29.8300 5.1535 -11.7593 42.5295 1.1729 3.3537 88.0775 0.0077 0.0079 51.0128 0.0029 0.0062 36.5549 0.0018 2.9423 95.8624 0.0087 0.0079 51.2739 0.0030 0.0062 36.7091 0.0018 1.4916 113.3937 0.0111 0.0072 63.1438 0.0043 0.0071 42.8550 -5.6741 2.2291 85.0312 0.0072 0.0079 119.2414 0.0118 0.0069 -8.5726 15.4784 13.5221 29.4275 10.1520 0.5209 -15.7601 5.4613 -10.6050 -3.0522 0.0000 -0.0000 -9.3219 -11.7318 -9.4111 26.6244 -4.6055 -3.1429 -15.2498 -1.8730 11.7761 -0.2419 0.0000 0.0000 
0.1531 92.8288 4.9491 -6.7089 -1.0081 -1.1789 1.3741 -0.0888 0.1027 2.5563 -0.1632 0.3700 2.5564 -0.1627 0.3707 -4.6091 0.6106 -1.7156 -0.0000 0.0000 -0.0000 -9.8229 0.7113 2.0925 31.9929 -12.7057 -6.8410 9.4450 -51.3726 -35.1929 0.0000 0.0000 -16.2599 -0.3187 4.7600 -19.8728 -9.5806 3.0992 -7.3944 -0.0083 0.0025 30.3938 29.9208 2.1548 6.1449 -36.5548 0.0035 -2.9469 -95.8624 0.0166 -0.0149 -51.2739 0.0056 -0.0117 -42.5293 1.1751 -3.3589 -88.0775 0.0145 -0.0150 -51.0128 0.0056 -0.0117 -36.7092 0.0035 -1.4963 -113.3937 0.0210 -0.0138 -63.1438 0.0082 -0.0134 -42.8556 -5.6719 -2.2343 -85.0312 0.0137 -0.0150 -119.2414 0.0224 -0.0131 -35.7089 -23.5753 10.9061 -15.6151 -39.7033 28.5172 0.0000 0.0000 23.8261 -11.1261 3.1969 -55.6676 9.5843 3.1023 7.3914 0.0045 0.0015 -30.3941 -29.8300 5.1535 -11.7593 42.5295 1.1729 3.3538 88.0775 0.0076 0.0079 51.0128 0.0029 0.0062 36.5549 0.0018 2.9423 95.8624 0.0087 0.0079 51.2739 0.0030 0.0062 36.7091 0.0018 1.4917 113.3937 0.0111 0.0073 63.1438 0.0043 0.0071 42.8550 -5.6741 2.2291 85.0312 0.0072 0.0079 119.2415 0.0118 0.0069 -8.3676 15.5354 13.4462 29.3595 10.1487 0.4712 -15.8057 5.6352 -10.5871 -3.0047 0.0000 0.0000 -9.3647 -11.7621 -9.5105 26.7375 -4.3103 -3.1547 -15.2837 -1.8651 11.6727 -0.2657 0.0000 0.0000 
0.1963 92.8393 4.9430 -6.8540 -1.0863 -1.1398 1.3744 -0.0981 0.1004 2.5569 -0.1801 0.3691 2.5571 -0.1796 0.3698 -4.7523 0.6708 -1.6552 -0.0000 0.0000 -0.0000 -9.8484 1.0078 2.2692 32.4395 -12.7616 -6.1970 7.3166 -52.0650 -36.6984 -0.0000 0.0000 -17.0571 -0.3187 4.7600 -19.8728 -9.5806 3.0992 -7.3945 -0.0083 0.0026 30.3938 29.9208 2.1548 6.1449 -36.5548 0.0035 -2.9470 -95.8624 0.0166 -0.0149 -51.2739 0.0056 -0.0117 -42.5293 1.1751 -3.3590 -88.0775 0.0145 -0.0150 -51.0128 0.0056 -0.0117 -36.7092 0.0035 -1.4963 -113.3937 0.0210 -0.0138 -63.1438 0.0082 -0.0134 -42.8556 -5.6719 -2.2343 -85.0312 0.0137 -0.0150 -119.2414 0.0224 -0.0131 -35.0013 -23.8516 11.5960 -16.9880 -39.5689 28.2933 -0.0000 0.0000 24.3921 -10.2334 2.6792 -56.0393 9.5843 3.1023 7.3914 0.0045 0.0015 -30.3940 -29.8300 5.1535 -11.7593 42.5295 1.1729 3.3537 88.0775 0.0077 0.0079 51.0128 0.0029 0.0062 36.5548 0.0018 2.9423 95.8624 0.0087 0.0079 51.2739 0.0030 0.0062 36.7091 0.0018 1.4916 113.3937 0.0111 0.0073 63.1438 0.0043 0.0071 42.8550 -5.6741 2.2291 85.0312 0.0072 0.0079 119.2415 0.0118 0.0069 -8.2304 15.5663 13.3791 29.3381 10.1471 0.4257 -15.7457 5.7220 -10.5519 -3.0565 0.0000 -0.0000 -9.3656 -11.7652 -9.5685 26.7646 -4.1592 -3.2018 -15.2516 -1.8522 11.5914 -0.3003 -0.0000 0.0000 
0.2462 92.8480 4.9109 -6.9576 -1.1263 -1.1251 1.3728 -0.1014 0.0990 2.5571 -0.1862 0.3670 2.5573 -0.1857 0.3677 -4.8576 0.6676 -1.6979 -0.0000 0.0000 -0.0000 -10.0852 1.0967 2.6157 33.1473 -12.8642 -5.6815 4.7170 -52.8603 -38.2421 0.0000 -0.0000 -18.2123 -0.3187 4.7600 -19.8728 -9.5806 3.0992 -7.3945 -0.0083 0.0025 30.3938 29.9208 2.1548 6.1450 -36.5548 0.0035 -2.9469 -95.8624 0.0166 -0.0150 -51.2739 0.0056 -0.0117 -42.5293 1.1751 -3.3590 -88.0775 0.0145 -0.0150 -51.0128 0.0056 -0.0117 -36.7092 0.0035 -1.4963 -113.3937 0.0210 -0.0138 -63.1438 0.0082 -0.0134 -42.8556 -5.6719 -2.2343 -85.0312 0.0137 -0.0150 -119.2414 0.0224 -0.0131 -34.3035 -24.0886 12.3002 -18.3862 -39.6751 27.7633 -0.0000 0.0000 25.3328 -8.7438 2.1913 -56.2044 9.5843 3.1023 7.3914 0.0045 0.0015 -30.3940 -29.8300 5.1535 -11.7593 42.5295 1.1729 3.3537 88.0775 0.0077 0.0079 51.0128 0.0029 0.0062 36.5548 0.0018 2.9423 95.8624 0.0087 0.0079 51.2739 0.0030 0.0062 36.7091 0.0018 1.4917 113.3937 0.0111 0.0073 63.1438 0.0043 0.0071 42.8550 -5.6741 2.2291 85.0312 0.0072 0.0079 119.2415 0.0118 0.0069 -8.2177 15.5895 13.3591 29.4044 10.1458 0.3804 -15.6949 5.7485 -10.5089 -3.1244 0.0000 -0.0000 -9.3871 -11.7149 -9.5565 26.7619 -4.1433 -3.2970 -15.1856 -1.8439 11.5796 -0.3279 0.0000 -0.0000 
0.3023 92.8325 4.8537 -7.0506 -1.1478 -1.1386 1.3685 -0.0911 0.0988 2.5539 -0.1678 0.3663 2.5541 -0.1673 0.3670 -4.8968 0.6250 -1.3248 -0.0000 0.0000 -0.0000 -10.3842 1.0908 2.4784 33.9896 -12.9693 -5.2539 2.0709 -53.5336 -39.5572 0.0000 -0.0000 -19.5960 -0.3187 4.7600 -19.8728 -9.5806 3.0992 -7.3945 -0.0083 0.0025 30.3938 29.9208 2.1548 6.1449 -36.5548 0.0035 -2.9470 -95.8624 0.0166 -0.0149 -51.2739 0.0056 -0.0117 -42.5293 1.1751 -3.3590 -88.0775 0.0145 -0.0150 -51.0128 0.0056 -0.0117 -36.7092 0.0035 -1.4963 -113.3937 0.0210 -0.0138 -63.1438 0.0082 -0.0134 -42.8556 -5.6719 -2.2343 -85.0312 0.0137 -0.0150 -119.2414 0.0224 -0.0131 -33.6248 -24.2713 13.0021 -19.6562 -40.1586 27.0993 -0.0000 0.0000 26.4759 -8.2389 2.1812 -56.1943 9.5843 3.1023 7.3914 0.0045 0.0015 -30.3940 -29.8300 5.1535 -11.7593 42.5295 1.1729 3.3538 88.0775 0.0076 0.0079 51.0128 0.0029 0.0061 36.5548 0.0018 2.9423 95.8624 0.0087 0.0079 51.2739 0.0030 0.0062 36.7091 0.0018 1.4917 113.3938 0.0111 0.0072 63.1438 0.0043 0.0071 42.8550 -5.6741 2.2291 85.0312 0.0072 0.0079 119.2414 0.0118 0.0069 -8.3135 15.6288 13.4161 29.6075 10.1421 0.2972 -15.7699 5.7332 -10.4631 -3.1333 0.0000 -0.0000 -9.4912 -11.7046 -9.6019 26.8643 -4.0377 -3.2909 -15.1728 -1.8406 11.5707 -0.3306 0.0000 -0.0000 
0.3575 92.7793 4.7781 -7.0913 -1.2176 -1.1267 1.3721 -0.0714 0.0853 2.5606 -0.1328 0.3490 2.5608 -0.1325 0.3497 -4.9139 0.5587 -1.0787 -0.0000 0.0000 -0.0000 -10.5008 1.0438 2.5234 34.7177 -12.9991 -4.8178 0.1147 -53.9206 -40.5304 -0.0000 0.0000 -20.8049 -0.3187 4.7600 -19.8728 -9.5806 3.0992 -7.3944 -0.0083 0.0026 30.3938 29.9208 2.1548 6.1449 -36.5548 0.0035 -2.9469 -95.8624 0.0166 -0.0150 -51.2739 0.0056 -0.0117 -42.5293 1.1751 -3.3590 -88.0775 0.0145 -0.0150 -51.0128 0.0056 -0.0117 -36.7092 0.0035 -1.4963 -113.3938 0.0210 -0.0138 -63.1438 0.0082 -0.0134 -42.8556 -5.6719 -2.2343 -85.0312 0.0137 -0.0150 -119.2414 0.0224 -0.0131 -32.9795 -24.3834 13.6795 -20.7473 -40.9209 26.4779 0.0000 -0.0000 27.5646 -7.1375 2.2912 -55.9998 9.5843 3.1023 7.3914 0.0045 0.0015 -30.3941 -29.8300 5.1535 -11.7593 42.5295 1.1729 3.3537 88.0775 0.0077 0.0079 51.0128 0.0029 0.0062 36.5548 0.0018 2.9423 95.8624 0.0087 0.0079 51.2739 0.0030 0.0062 36.7091 0.0018 1.4916 113.3937 0.0111 0.0073 63.1438 0.0043 0.0071 42.8550 -5.6741 2.2291 85.0312 0.0072 0.0079 119.2415 0.0118 0.0069 -8.4215 15.6466 13.4522 29.9278 10.1380 0.2442 -15.9865 5.7039 -10.4525 -3.0624 0.0000 -0.0000 -9.6340 -11.6936 -9.6877 27.1412 -3.9343 -3.3249 -15.2686 -1.8684 11.6950 -0.2960 -0.0000 0.0000 
